<?xml version="1.0" standalone="no"?>
<!DOCTYPE svg PUBLIC "-//W3C//DTD SVG 20010904//EN"
 "http://www.w3.org/TR/2001/REC-SVG-20010904/DTD/svg10.dtd">
<svg version="1.0" xmlns="http://www.w3.org/2000/svg"
 width="822.000000pt" height="822.000000pt" viewBox="0 0 822.000000 822.000000"
 preserveAspectRatio="xMidYMid meet">
<metadata>
Created by potrace 1.11, written by Peter Selinger 2001-2013
</metadata>
<g transform="translate(0.000000,822.000000) scale(0.100000,-0.100000)"
fill="#000000" stroke="none">
<path d="M1715 8125 c-83 -15 -97 -19 -154 -39 -346 -125 -584 -464 -582 -831
0 -71 5 -130 16 -175 3 -14 9 -36 12 -50 3 -14 6 -33 7 -42 0 -10 3 -18 6 -18
7 0 45 -102 42 -112 -1 -5 2 -8 7 -8 5 0 16 -12 23 -27 25 -49 42 -76 65 -102
12 -13 20 -28 17 -32 -2 -4 5 -10 16 -14 18 -6 25 -17 21 -38 -1 -5 3 -6 8 -3
5 4 19 -6 30 -20 12 -15 21 -23 21 -19 0 4 7 2 15 -5 8 -7 12 -17 8 -23 -3 -5
-2 -7 4 -4 5 3 25 -7 44 -24 19 -16 38 -29 42 -29 5 0 5 -5 1 -12 -4 -6 -3 -8
4 -4 6 3 41 -9 79 -28 74 -38 104 -50 116 -47 4 1 3 -7 -2 -18 -6 -10 -7 -21
-4 -25 4 -4 6 -30 4 -59 -7 -129 -5 -357 3 -357 5 0 4 -6 -1 -12 -6 -7 -9 -22
-6 -33 4 -20 6 -95 3 -105 -6 -21 -3 -90 4 -90 5 0 4 -6 -1 -12 -6 -7 -9 -22
-6 -33 4 -20 6 -95 3 -105 -6 -21 -3 -90 4 -90 5 0 4 -6 -1 -12 -6 -7 -8 -22
-6 -33 2 -11 4 -24 4 -30 -5 -245 -4 -405 3 -405 5 0 4 -6 -1 -12 -6 -7 -9
-22 -6 -33 4 -20 6 -95 3 -105 -6 -21 -3 -90 4 -90 5 0 4 -6 -1 -12 -6 -7 -9
-22 -6 -33 4 -20 6 -95 3 -105 -6 -21 -3 -90 4 -90 5 0 2 -7 -5 -17 -8 -9 -12
-19 -11 -22 17 -28 19 -39 12 -51 -4 -7 -4 -23 0 -36 5 -12 6 -25 3 -28 -9 -9
-9 -86 1 -86 5 0 4 -6 -1 -12 -6 -7 -9 -22 -6 -33 6 -32 7 -104 1 -111 -3 -3
-2 -20 2 -39 4 -19 5 -36 2 -39 -9 -9 -7 -86 2 -86 5 0 4 -6 -1 -12 -6 -7 -9
-22 -6 -33 7 -38 8 -105 1 -108 -4 -1 -3 -19 1 -39 5 -20 6 -39 3 -42 -9 -9
-7 -86 2 -86 5 0 4 -6 -1 -12 -6 -7 -9 -22 -6 -33 6 -32 7 -104 1 -111 -3 -3
-2 -20 2 -39 4 -19 5 -36 2 -39 -9 -9 -7 -86 2 -86 5 0 4 -6 -1 -12 -6 -7 -9
-22 -6 -33 6 -32 8 -105 3 -105 -3 0 -5 -92 -5 -205 0 -113 4 -205 9 -205 5 0
4 -6 -1 -12 -6 -7 -9 -22 -6 -33 4 -20 6 -95 3 -105 -6 -21 -3 -90 4 -90 5 0
4 -6 -1 -12 -6 -7 -9 -22 -6 -33 4 -20 6 -95 3 -105 -6 -21 -3 -90 4 -90 5 0
4 -6 -1 -12 -6 -7 -8 -22 -6 -33 2 -11 4 -26 4 -32 -4 -145 -2 -364 3 -372 4
-5 1 -13 -5 -17 -8 -4 -7 -9 2 -15 11 -7 11 -9 -2 -9 -9 0 -43 -12 -75 -26
-312 -138 -523 -459 -525 -801 -1 -116 21 -248 51 -303 7 -14 12 -26 11 -28
-4 -5 41 -99 72 -147 38 -59 46 -71 69 -92 9 -9 15 -20 12 -24 -2 -4 5 -10 16
-14 18 -6 25 -17 21 -38 -1 -5 3 -6 9 -2 5 3 21 -5 34 -18 13 -14 38 -34 55
-47 17 -12 29 -25 27 -29 -3 -4 5 -8 16 -8 12 -1 24 -6 27 -11 3 -5 21 -15 39
-23 17 -8 32 -17 32 -21 0 -5 3 -7 8 -6 13 4 81 -25 77 -33 -3 -4 1 -7 8 -6
35 1 48 -4 41 -16 -5 -9 -4 -9 6 0 9 8 19 9 30 3 10 -5 35 -13 56 -16 58 -10
334 -12 328 -2 -5 7 14 11 59 11 9 0 17 4 17 10 0 6 3 8 6 5 3 -4 21 0 40 8
19 8 40 12 47 8 7 -4 9 -4 5 1 -9 10 143 86 156 78 5 -4 6 -1 2 6 -4 6 0 14
11 18 10 4 28 17 41 30 13 13 28 21 33 17 5 -3 8 -2 7 3 -5 15 106 124 121
118 11 -4 11 -3 2 9 -10 12 -9 15 8 13 12 -1 20 -6 17 -12 -2 -7 2 -12 9 -12
7 0 10 8 7 19 -2 10 1 18 7 18 7 0 10 -4 7 -8 -3 -5 8 -8 24 -7 29 2 40 -8 20
-18 -6 -3 -5 -4 2 -3 7 1 15 11 16 20 3 14 -1 17 -20 11 -17 -5 -19 -4 -8 4
10 7 5 9 -22 7 -19 -2 -40 -6 -47 -10 -6 -4 -11 -2 -11 3 0 6 7 11 15 11 8 0
15 5 15 12 0 9 3 9 11 1 6 -6 17 -9 24 -6 8 2 23 0 34 -7 16 -8 21 -8 21 2 0
9 3 9 8 2 4 -6 42 -10 90 -10 46 1 86 -2 89 -7 2 -4 9 -4 15 -1 16 10 101 12
120 2 9 -4 19 -4 22 1 5 7 18 7 85 2 19 -1 5 -14 -19 -18 -11 -2 -20 2 -20 7
0 6 -5 10 -12 10 -7 0 -3 -10 9 -22 17 -17 25 -19 36 -10 8 7 22 10 31 6 9 -4
16 -1 16 6 0 9 4 9 17 -1 9 -8 14 -9 10 -2 -4 6 -1 14 5 17 7 2 4 4 -7 3 -11
-2 -26 -6 -32 -10 -8 -5 -13 -3 -13 5 0 10 19 14 78 13 42 0 83 4 90 8 7 6 12
5 12 -2 0 -10 -14 -15 -33 -12 -5 1 -6 -3 -2 -9 9 -14 -8 -13 -23 2 -9 9 -15
9 -24 -1 -7 -7 -8 -12 -3 -11 22 5 36 -1 29 -11 -4 -8 -1 -8 13 -1 12 7 25 7
38 1 19 -10 19 -10 2 4 -18 15 -18 15 2 22 12 3 19 9 17 13 -2 4 7 8 20 8 13
1 24 -3 24 -9 0 -6 -3 -7 -6 -4 -4 3 -16 2 -26 -4 -14 -8 -17 -14 -10 -21 6
-6 8 -18 5 -27 -3 -11 -1 -11 7 3 10 14 10 20 0 26 -9 5 -8 9 2 13 8 3 20 -4
26 -14 8 -12 8 -19 2 -19 -5 0 -10 -5 -10 -11 0 -8 5 -7 15 1 11 9 13 16 5 24
-19 19 -10 27 13 12 13 -9 28 -12 35 -7 11 7 10 10 -3 15 -9 3 -13 11 -9 17 4
8 9 7 15 -2 5 -9 9 -10 9 -3 0 7 6 14 14 17 17 7 30 -20 14 -29 -7 -4 -8 -3
-4 4 4 7 2 12 -3 12 -6 0 -11 -7 -11 -16 0 -9 6 -14 13 -11 6 2 20 0 30 -5 11
-5 17 -5 17 2 0 5 -7 10 -16 10 -14 0 -15 2 -3 17 12 14 12 16 0 8 -10 -6 -12
-4 -6 4 4 7 15 11 25 8 10 -2 24 -1 31 4 8 4 19 3 26 -3 10 -8 13 -7 13 3 0
11 2 11 10 -1 8 -12 10 -12 10 -1 0 8 3 11 7 8 3 -4 12 -2 19 4 9 7 12 6 10
-5 -1 -9 -6 -19 -11 -23 -4 -5 -4 -1 0 7 7 12 6 13 -6 3 -16 -13 -36 -12 -56
0 -7 5 -13 4 -13 -2 0 -5 -9 -8 -20 -6 -21 4 -27 -9 -9 -20 6 -4 8 -14 5 -22
-3 -8 -1 -11 5 -8 5 4 7 16 3 28 -6 20 -5 21 11 7 11 -9 16 -10 11 -2 -11 18
33 9 45 -9 7 -11 9 -11 9 4 0 10 4 16 9 12 5 -3 12 -1 15 4 3 4 17 9 31 9 22
0 24 -3 13 -16 -11 -13 -9 -13 12 1 14 9 37 15 50 12 18 -3 21 -2 12 7 -6 6
-24 13 -39 14 -21 2 -24 1 -13 -6 8 -5 10 -10 5 -10 -6 0 -16 5 -23 12 -9 9
-12 9 -12 -1 0 -7 -5 -9 -11 -5 -20 12 11 22 62 19 26 -1 46 1 44 5 -2 4 2 7
10 7 17 0 20 -13 5 -22 -5 -3 -10 -11 -10 -18 0 -6 7 -2 16 9 13 16 15 16 10
2 -3 -10 -1 -18 5 -18 6 0 9 10 7 23 -1 12 1 23 5 24 13 5 37 -9 31 -18 -3 -5
-10 -7 -15 -4 -5 3 -6 -1 -3 -10 6 -14 8 -14 20 2 9 12 16 14 21 7 5 -6 16
-11 25 -11 13 0 16 7 14 27 -2 15 2 27 8 28 59 7 75 10 86 17 9 5 11 4 6 -3
-4 -7 -2 -12 5 -12 7 0 5 -8 -6 -20 -10 -11 -13 -20 -8 -20 13 0 27 29 24 49
-2 11 0 11 12 0 11 -10 12 -18 5 -26 -6 -7 -7 -13 -2 -13 5 0 18 13 29 28 13
19 14 23 3 14 -11 -9 -18 -10 -23 -2 -3 5 1 11 9 11 9 1 24 2 34 3 9 1 22 5
28 9 13 8 27 -19 18 -34 -3 -5 0 -8 8 -7 7 2 12 -3 10 -10 -1 -8 2 -11 8 -7 6
3 8 10 5 15 -8 13 24 34 56 35 20 1 28 -3 25 -11 -5 -13 19 -13 31 1 4 4 3 5
-3 2 -7 -4 -15 0 -18 9 -5 12 -2 15 11 9 29 -12 47 -11 49 3 3 25 5 27 14 12
9 -13 11 -13 20 0 5 8 10 20 10 25 0 6 -4 3 -10 -5 -5 -8 -12 -11 -16 -8 -4 4
-16 1 -28 -7 -22 -16 -40 -20 -32 -7 3 5 -1 9 -9 9 -8 0 -17 -7 -20 -15 -4
-12 -8 -12 -22 -1 -12 10 -15 11 -9 1 6 -9 1 -11 -18 -8 -15 3 -24 1 -21 -3 2
-5 -3 -15 -12 -22 -15 -12 -16 -12 -10 4 4 11 3 16 -3 12 -6 -3 -10 -1 -10 4
0 6 6 11 13 12 6 0 21 3 32 5 11 3 29 7 40 9 11 2 20 4 20 5 0 3 42 12 68 13
15 1 27 5 27 9 0 4 8 7 18 7 33 0 57 6 70 19 8 7 18 10 23 6 6 -3 16 0 24 6 8
7 15 9 15 5 0 -4 7 -2 15 5 8 7 15 9 15 5 0 -4 6 -3 13 2 6 6 20 9 29 8 10 -2
21 1 24 6 3 6 15 7 26 3 15 -5 19 -3 13 7 -5 8 -5 11 -1 7 4 -3 19 0 33 7 14
7 32 11 39 8 8 -3 14 0 14 6 0 6 6 11 13 11 6 -1 1 -10 -12 -21 -14 -11 -31
-17 -42 -14 -12 4 -22 -1 -29 -15 -9 -17 -14 -19 -26 -9 -11 9 -17 9 -29 -1
-8 -7 -15 -9 -15 -4 0 11 -20 -18 -20 -28 0 -5 5 -8 12 -8 6 0 8 3 5 7 -4 3 2
13 14 21 14 10 24 11 31 4 13 -13 38 -4 38 14 0 8 5 14 10 14 6 0 10 -8 10
-17 0 -15 1 -15 13 2 10 13 16 15 21 6 5 -8 19 -2 46 19 36 28 39 29 49 13 6
-10 11 -13 11 -8 1 6 3 18 5 28 2 11 -1 14 -8 10 -7 -4 -21 -8 -32 -8 -11 -1
-19 -5 -18 -10 0 -6 -10 -18 -23 -28 -29 -21 -31 -11 -4 21 10 13 32 25 47 28
15 3 34 11 42 17 12 9 13 9 7 0 -4 -8 -2 -13 4 -13 6 0 9 -4 5 -9 -3 -5 0 -13
6 -17 7 -4 9 -3 5 4 -10 17 11 24 35 11 15 -8 19 -8 15 0 -7 10 6 16 27 12 5
-1 6 3 2 9 -5 9 22 15 48 11 4 0 6 2 6 6 -3 20 2 34 10 28 5 -3 13 0 17 6 4 8
3 9 -4 5 -7 -4 -12 -2 -12 3 0 6 12 11 27 11 26 0 26 0 7 -22 -17 -21 -16 -21
9 1 30 27 37 19 10 -13 -14 -16 -14 -18 -2 -8 9 6 20 8 24 4 5 -4 5 -2 2 4
-10 17 26 57 52 59 11 1 21 -3 21 -8 0 -6 3 -7 7 -4 3 4 -2 17 -13 29 -10 13
-15 20 -10 16 5 -4 15 0 23 8 8 8 18 12 23 9 5 -3 11 -1 15 5 4 6 11 8 16 5 5
-4 9 -1 9 5 0 6 5 8 11 4 8 -4 7 -9 -2 -15 -10 -6 -10 -9 -2 -9 6 0 15 5 18
11 5 6 12 4 22 -8 13 -17 13 -16 3 5 -13 26 -3 29 17 4 13 -15 13 -15 3 6 -12
25 -21 27 -38 10 -8 -8 -12 -8 -12 -1 0 12 45 29 70 27 8 -1 21 -2 28 -3 7 0
11 -5 8 -9 -2 -4 4 -8 14 -9 18 -2 18 -1 2 16 -9 10 -25 17 -35 15 -10 -2 -15
1 -12 7 9 14 26 11 48 -9 11 -9 17 -12 14 -5 -4 6 -3 14 3 18 5 3 10 -2 11
-12 0 -11 3 -13 6 -5 3 7 0 19 -6 26 -9 10 -6 17 11 28 35 22 102 52 111 50 4
-1 7 2 7 7 0 5 13 16 29 24 27 14 28 13 28 -9 1 -14 -4 -21 -10 -17 -6 4 -7 1
-2 -7 6 -10 11 -9 22 5 12 17 18 13 14 -8 -1 -5 3 -6 9 -2 8 5 8 11 0 20 -7 8
-8 20 -4 26 4 8 3 9 -4 5 -8 -5 -10 -2 -6 8 3 9 10 16 14 16 4 0 23 11 42 23
19 13 42 23 52 21 12 -2 16 2 12 12 -6 15 9 20 18 6 9 -14 -10 -32 -29 -28
-11 2 -26 -2 -32 -10 -11 -11 -7 -12 23 -9 25 4 33 2 28 -7 -5 -7 -3 -8 5 -4
7 5 10 10 7 13 -3 3 -1 14 5 24 8 16 14 17 30 8 12 -6 23 -8 26 -6 2 3 -5 8
-16 12 -12 3 -21 12 -21 18 0 7 -4 6 -10 -3 -5 -8 -10 -10 -10 -4 0 21 14 24
39 7 20 -13 23 -13 14 -1 -7 8 -9 19 -5 23 4 5 1 5 -7 0 -9 -5 -12 -4 -7 3 4
7 14 12 22 12 8 0 14 5 14 12 0 9 3 9 11 1 6 -6 18 -9 27 -6 10 4 13 2 8 -5
-11 -18 0 -14 15 5 12 14 12 16 0 8 -11 -6 -13 -4 -7 10 7 18 6 18 -14 0 -16
-14 -19 -15 -15 -3 3 8 16 20 28 26 12 7 31 19 43 27 19 14 21 14 21 0 0 -9
-6 -14 -12 -11 -6 2 -17 -5 -23 -15 -8 -13 -9 -19 -1 -19 5 0 7 -5 3 -12 -4
-7 -3 -8 4 -4 6 4 9 13 5 21 -5 15 10 19 47 16 12 -1 11 1 -2 9 -21 13 -15 30
26 75 33 36 46 43 46 24 0 -5 -4 -8 -9 -4 -5 3 -13 0 -17 -6 -5 -8 -3 -9 6 -4
10 6 12 3 7 -11 -7 -18 -6 -18 6 -2 8 10 17 15 21 11 4 -4 4 1 1 12 -7 20 -6
20 9 1 10 -13 16 -15 16 -7 0 11 3 11 16 0 9 -7 24 -14 33 -14 9 -1 29 -2 44
-3 20 -1 26 -6 21 -14 -6 -10 -4 -10 8 0 9 7 19 9 22 4 7 -11 271 -10 282 0 4
4 14 2 22 -5 13 -9 14 -9 8 1 -4 7 -2 12 6 13 7 0 22 3 33 6 11 3 32 6 47 7
14 0 24 4 22 8 -9 15 22 14 41 -1 18 -15 19 -15 6 2 -12 15 -10 18 17 28 17 6
34 9 37 7 4 -1 11 5 16 15 6 9 14 15 18 13 9 -6 171 114 223 166 20 20 33 40
30 44 -4 4 1 4 10 1 11 -4 15 -2 12 6 -2 7 7 25 21 41 14 16 25 33 25 37 0 4
6 14 13 21 16 17 74 136 82 171 4 15 11 27 16 27 5 0 6 7 3 15 -3 8 -2 20 2
27 4 7 9 19 10 28 1 8 4 35 8 60 3 25 7 57 8 73 1 15 7 27 13 27 5 0 4 4 -4 9
-12 8 -12 12 -2 24 7 9 8 18 2 21 -5 3 -9 25 -9 49 -1 59 -29 178 -64 267 -61
154 -189 309 -338 408 -64 43 -84 76 -56 94 8 6 8 8 -1 8 -8 0 -9 9 -3 30 5
17 6 30 2 30 -7 0 -7 118 -1 125 2 2 2 40 -1 85 -3 45 -1 88 3 96 4 8 4 14 0
14 -9 0 -8 114 1 129 4 6 3 11 -2 11 -4 0 -6 23 -2 50 4 28 4 50 1 50 -3 0 -6
18 -6 40 0 22 2 40 5 40 3 0 4 21 3 47 -1 27 -2 48 -3 48 -1 0 -2 15 -3 33 -1
17 0 32 3 32 7 0 4 89 -3 96 -3 4 -2 16 2 28 4 11 4 39 1 61 -3 22 -2 61 1 88
3 26 3 47 0 47 -8 0 -5 116 3 129 4 6 3 11 -2 11 -4 0 -6 22 -2 50 4 27 4 50
1 50 -3 0 -6 54 -6 120 0 66 2 120 5 120 3 0 4 21 3 47 -1 27 -2 48 -3 48 -1
0 -2 15 -3 33 -1 17 0 32 3 32 7 0 4 89 -3 96 -3 3 -1 19 3 35 5 16 6 29 2 29
-8 0 -6 154 2 175 3 8 2 15 -2 15 -4 0 -9 13 -10 29 -2 24 4 33 34 50 19 12
40 18 46 15 6 -4 8 -3 5 3 -9 14 80 76 95 67 7 -4 8 -3 4 5 -5 7 11 30 39 59
51 51 162 213 171 249 4 13 10 23 16 23 5 0 7 4 4 8 -3 5 1 20 9 35 8 15 12
27 10 27 -2 0 1 15 6 33 26 83 33 148 30 262 -5 158 -6 165 -13 165 -5 0 -8 8
-8 18 0 17 -35 118 -61 177 -53 119 -196 282 -314 357 -157 101 -300 143 -485
142 -119 0 -177 -9 -277 -43 l-88 -29 -28 30 c-25 26 -132 101 -192 134 -246
137 -317 174 -475 247 -143 67 -377 157 -535 207 -117 37 -263 80 -295 86 -14
3 -59 14 -100 24 -41 10 -88 21 -104 24 -16 3 -52 10 -80 16 -28 6 -62 13 -76
15 -14 3 -68 12 -120 20 -52 8 -105 17 -117 19 -12 3 -46 7 -75 11 -29 3 -67
7 -84 10 -17 2 -64 6 -105 10 -41 3 -94 8 -119 10 -118 12 -306 18 -525 18
-229 0 -268 -3 -325 -17 -22 -6 -31 0 -64 44 -115 151 -287 266 -477 320 -93
26 -275 34 -374 15z m1135 -1205 c0 -7 -17 -10 -57 -11 -13 -1 -20 -5 -17 -11
3 -5 21 -7 40 -5 19 3 34 1 34 -3 0 -4 8 -11 17 -14 15 -6 15 -4 -2 14 -11 12
-13 20 -6 20 7 0 10 4 7 8 -2 4 78 8 179 8 117 0 186 -4 189 -11 2 -6 -16 -10
-44 -10 -27 0 -46 3 -44 6 5 9 -39 4 -56 -6 -9 -5 -11 -4 -6 3 4 7 3 12 -2 12
-5 0 -9 -12 -9 -27 0 -21 1 -23 9 -10 4 9 15 14 23 11 8 -4 13 -9 10 -13 -2
-4 2 -8 10 -8 13 0 12 4 -2 19 -9 10 -11 18 -5 18 6 0 17 -9 25 -20 10 -15 16
-17 19 -8 8 20 69 14 84 -7 8 -11 14 -14 14 -9 0 6 -3 14 -7 18 -12 11 -11 46
1 38 6 -4 36 -8 67 -7 36 0 55 -4 53 -10 -6 -14 -42 -16 -50 -3 -4 7 -9 6 -14
-3 -7 -10 -12 -10 -23 -1 -17 14 -28 6 -20 -15 5 -12 7 -12 14 -1 7 11 9 11 9
-1 0 -11 3 -11 15 -1 12 10 18 10 30 0 12 -10 15 -10 15 0 0 10 3 10 15 0 8
-7 13 -15 11 -19 -3 -4 -1 -13 3 -20 6 -9 9 -4 9 13 0 14 -5 26 -10 26 -5 0
-7 4 -3 10 3 5 12 7 20 4 8 -4 12 -11 9 -16 -5 -7 0 -7 12 0 14 8 23 7 36 -5
10 -9 18 -12 18 -7 0 6 9 10 21 11 17 2 18 -1 9 -13 -9 -10 -9 -14 -1 -14 6 0
11 4 11 8 0 16 40 11 40 -6 1 -15 2 -15 11 1 6 10 15 14 22 10 7 -5 23 -9 37
-9 48 -3 51 -4 45 -14 -3 -6 1 -7 9 -4 16 6 20 17 17 43 -2 8 2 10 11 5 15
-10 30 -13 80 -16 21 -2 38 -5 38 -8 0 -3 17 -5 38 -6 46 -1 65 -6 74 -19 13
-17 9 -28 -7 -15 -8 6 -24 13 -37 15 -13 1 -30 5 -38 7 -8 3 -12 3 -7 1 4 -3
5 -9 2 -14 -4 -5 2 -6 12 -2 15 5 16 3 6 -8 -7 -7 -13 -17 -13 -23 0 -5 6 -2
13 8 14 19 52 12 40 -8 -5 -8 -3 -8 8 1 8 6 16 13 19 15 3 1 19 -6 35 -16 24
-16 27 -16 16 -3 -18 22 -3 22 22 0 11 -10 17 -13 14 -6 -4 6 -3 14 3 18 9 6
14 -7 11 -27 0 -5 3 -8 8 -8 5 0 8 10 7 23 -1 19 -6 23 -26 22 -14 -1 -31 2
-37 8 -9 6 -13 6 -13 -2 0 -16 -17 -14 -23 4 -4 8 -1 17 5 21 6 4 8 3 5 -3 -4
-5 8 -10 26 -11 51 -1 72 -9 69 -23 -3 -11 -1 -12 9 -1 16 15 29 16 29 1 0 -5
-5 -7 -12 -3 -7 4 -8 3 -4 -4 4 -7 1 -12 -6 -13 -10 0 -10 -2 0 -6 6 -2 12 -9
12 -14 0 -6 -6 -7 -12 -3 -7 4 -9 3 -5 -1 4 -5 22 -10 39 -11 22 -2 28 0 18 6
-8 5 -18 6 -22 4 -4 -3 -6 5 -4 18 2 16 9 22 22 21 57 -6 89 -14 92 -23 2 -6
8 -10 13 -10 6 0 7 6 3 13 -6 9 -5 9 8 0 8 -7 17 -12 19 -10 2 1 -2 -3 -10
-10 -8 -7 -18 -10 -22 -7 -5 3 -17 0 -26 -6 -17 -11 -17 -11 1 -6 10 4 26 1
34 -6 12 -10 14 -10 8 0 -4 6 -3 12 3 12 5 0 11 -3 14 -7 2 -5 2 -3 1 4 -3 14
24 26 39 16 7 -4 19 -8 27 -8 8 0 14 -8 14 -17 -1 -10 2 -15 7 -12 5 3 9 1 9
-4 0 -6 7 -12 15 -16 19 -7 19 -1 -1 19 -9 9 -13 19 -10 23 4 3 11 1 15 -7 5
-7 11 -12 15 -12 19 3 26 0 26 -10 0 -8 -6 -7 -17 2 -15 12 -16 12 -8 -1 10
-15 11 -20 14 -42 1 -9 4 -9 10 2 6 8 7 18 5 22 -3 4 0 8 6 8 6 0 8 5 5 10 -3
6 -1 10 5 10 6 0 8 -12 5 -30 -6 -35 0 -39 16 -9 9 17 8 20 -2 14 -8 -5 -10
-4 -5 3 10 17 29 15 23 -2 -3 -8 1 -20 9 -26 13 -12 17 -9 12 8 -2 4 -7 6 -13
4 -5 -2 -4 2 3 10 11 11 14 10 22 -2 5 -8 10 -11 10 -6 0 5 6 3 13 -3 8 -6 17
-8 20 -4 4 3 7 1 7 -5 0 -18 -18 -23 -27 -7 -7 12 -10 11 -21 -5 -7 -12 -8
-20 -2 -20 5 0 10 5 10 10 0 6 8 5 19 -2 11 -7 18 -15 16 -18 -2 -3 6 -7 17
-7 18 -2 19 -1 4 10 -11 8 -15 19 -10 30 5 14 9 15 20 6 8 -6 14 -8 14 -4 0 4
11 0 25 -9 13 -9 31 -16 40 -16 8 0 15 -4 15 -8 0 -4 10 -9 22 -9 13 -1 24 -7
26 -12 2 -5 10 -7 18 -4 8 3 14 -1 14 -8 0 -7 -3 -9 -6 -6 -4 3 -16 1 -27 -5
-17 -9 -19 -8 -14 6 4 10 3 15 -3 11 -6 -3 -10 0 -10 7 0 9 -3 9 -10 -2 -5 -8
-10 -10 -10 -4 0 6 -11 16 -25 22 -14 6 -25 10 -25 8 0 -3 -3 -11 -6 -20 -3
-9 -1 -16 6 -16 6 0 8 5 5 10 -10 16 15 12 32 -5 8 -8 18 -13 23 -10 4 3 11
-2 14 -11 4 -9 9 -14 13 -11 3 4 12 2 20 -5 11 -9 12 -7 7 8 -4 10 -4 16 1 12
4 -4 14 -3 22 3 10 9 13 8 13 0 0 -7 7 -11 16 -9 10 2 19 -2 21 -9 4 -12 -14
-12 -34 0 -6 4 -15 2 -19 -5 -4 -7 -4 -10 1 -6 4 4 14 1 22 -7 11 -12 18 -12
33 -3 10 7 16 16 14 20 -3 5 9 0 27 -10 18 -10 34 -25 37 -32 3 -12 2 -13 -6
-1 -5 7 -12 9 -15 5 -3 -5 1 -15 8 -21 11 -10 15 -9 20 7 4 11 11 20 16 20 13
0 11 -7 -6 -33 -10 -16 -11 -26 -4 -37 9 -13 10 -12 5 2 -3 9 4 27 15 40 11
13 17 17 13 9 -5 -11 -3 -13 10 -8 10 4 24 -1 36 -13 22 -22 35 -26 24 -7 -5
8 -2 7 9 -2 11 -8 15 -21 12 -32 -4 -11 -2 -19 5 -19 6 0 8 5 5 10 -3 6 -1 10
5 10 6 0 8 4 5 10 -3 5 7 2 24 -7 27 -16 33 -33 10 -33 -6 0 -7 5 -3 12 4 7 3
8 -4 4 -7 -4 -12 -2 -12 5 0 7 -2 10 -5 7 -10 -10 7 -36 27 -41 11 -3 17 -10
13 -16 -3 -6 -1 -11 4 -11 14 0 14 13 0 27 -7 7 -6 12 6 17 10 4 14 2 9 -5 -4
-8 1 -9 16 -4 14 5 20 3 16 -3 -9 -14 4 -43 16 -36 6 4 5 10 -3 16 -10 7 -8 8
6 3 11 -4 25 -8 32 -8 7 0 10 -4 7 -9 -3 -5 -9 -6 -14 -3 -14 9 -23 -16 -11
-28 9 -9 11 -8 6 3 -7 19 32 25 52 8 7 -6 13 -7 13 -3 0 4 16 -5 35 -19 19
-15 35 -24 35 -21 0 4 7 0 15 -8 8 -9 20 -18 27 -21 10 -5 10 -7 1 -12 -7 -3
-13 -10 -13 -15 0 -6 4 -8 9 -5 5 3 12 -1 15 -10 3 -9 13 -14 21 -10 8 3 19
-3 24 -12 6 -9 11 -13 11 -9 0 5 5 5 11 1 8 -4 7 -9 -2 -15 -8 -5 -9 -9 -3 -9
6 0 18 8 25 18 7 9 9 14 5 10 -5 -4 -21 1 -35 11 -14 10 -31 16 -37 14 -14 -5
-27 24 -14 32 6 4 10 -2 11 -12 0 -12 2 -14 6 -4 3 7 8 9 12 5 3 -5 19 -16 35
-25 28 -16 45 -49 25 -49 -4 0 -5 -7 -2 -17 5 -12 3 -14 -8 -8 -11 7 -12 6 -3
-6 6 -8 11 -52 11 -99 1 -95 9 -168 23 -205 5 -14 7 -25 5 -25 -3 0 1 -16 9
-35 9 -20 15 -37 16 -40 6 -38 67 -156 115 -220 42 -56 164 -187 175 -189 3
-1 4 -5 2 -9 -1 -5 2 -6 8 -2 14 9 42 -14 33 -28 -3 -5 -1 -7 5 -3 6 3 26 -2
44 -12 29 -17 33 -23 32 -58 -3 -73 -4 -75 -16 -68 -10 6 -10 4 0 -8 18 -23
19 -234 1 -230 -10 2 -10 0 0 -11 18 -22 17 -383 -1 -405 -10 -12 -10 -14 0
-8 7 4 12 2 12 -6 6 -139 -1 -292 -12 -305 -9 -12 -10 -15 0 -9 7 4 12 2 12
-6 1 -7 1 -130 1 -273 0 -198 -3 -259 -12 -257 -10 2 -10 0 0 -11 18 -22 17
-383 -1 -405 -10 -12 -10 -14 0 -8 6 4 12 4 12 -1 3 -66 3 -243 -1 -246 -2 -2
-31 -21 -64 -43 -33 -21 -92 -70 -131 -109 -66 -66 -144 -163 -144 -181 0 -4
-6 -15 -14 -23 -18 -21 -74 -159 -81 -201 -3 -18 -8 -36 -10 -40 -8 -14 -19
-138 -18 -210 2 -73 5 -99 17 -150 6 -23 -3 -31 -124 -109 -72 -47 -141 -90
-153 -96 -12 -7 -42 -23 -67 -37 -138 -78 -338 -173 -510 -242 -95 -38 -372
-127 -439 -141 -9 -2 -54 -13 -101 -24 -99 -24 -340 -67 -426 -76 -32 -4 -66
-8 -74 -10 -8 -2 -53 -7 -100 -11 -47 -3 -94 -8 -105 -11 -11 -3 -172 -7 -357
-9 l-337 -5 -35 73 c-84 176 -228 320 -406 406 -47 22 -94 43 -105 47 -13 5
-15 9 -7 12 6 3 12 9 12 14 0 6 -5 7 -12 3 -7 -5 -8 -3 -3 6 7 11 10 95 4 118
-1 4 0 12 1 17 1 6 2 48 1 95 -2 98 -2 82 2 185 2 44 -1 90 -5 103 -4 12 -4
22 1 22 5 0 5 16 1 34 -4 19 -6 37 -3 40 9 9 10 41 2 64 -5 12 -5 22 0 22 5 0
5 16 1 34 -4 19 -5 37 -2 40 3 3 4 45 3 93 -1 49 -2 93 -2 98 1 6 2 46 4 90 2
44 -1 90 -5 103 -4 12 -4 22 1 22 5 0 5 16 1 34 -4 19 -6 37 -3 39 7 8 6 384
-1 396 -4 6 -3 11 2 11 6 0 7 14 2 34 -4 19 -5 37 -2 40 3 3 4 45 3 93 -1 49
-2 93 -2 98 1 6 2 46 4 90 2 44 -1 90 -5 103 -4 12 -4 22 1 22 5 0 5 16 1 34
-4 19 -6 37 -3 39 2 3 4 114 3 248 0 134 0 253 0 264 0 11 0 85 0 165 0 80 -1
152 -1 160 3 242 1 512 -4 520 -3 5 -2 10 3 10 6 0 7 14 2 34 -4 19 -5 37 -2
40 3 3 4 45 3 93 -1 49 -2 93 -2 98 1 6 2 46 4 90 2 44 -1 90 -5 103 -4 12 -4
22 1 22 5 0 5 16 1 34 -4 19 -6 37 -3 40 4 3 5 128 2 209 -1 6 0 65 1 129 1
100 4 117 18 121 9 2 26 -4 37 -12 18 -15 19 -15 6 2 -8 9 -12 19 -10 21 11 8
75 30 82 28 4 -1 7 2 7 7 0 4 20 19 45 32 25 13 45 27 45 31 0 5 7 8 15 8 8 0
15 5 15 12 0 6 3 9 6 5 3 -3 17 7 31 24 14 16 30 26 35 22 7 -3 8 -1 4 5 -3 6
0 14 8 19 22 12 114 130 137 175 14 28 25 38 36 34 14 -6 14 -4 2 11 -12 15
-12 16 5 10 16 -6 17 -5 6 8 -10 12 -10 15 4 15 9 0 16 -5 16 -12 0 -6 3 -8 7
-4 5 4 0 14 -10 21 -12 8 -14 15 -7 20 5 3 8 9 6 13 -2 4 34 7 80 8 46 1 84
-2 84 -6z m564 -8 c3 -5 25 -8 50 -7 26 1 46 -2 46 -8 0 -5 6 -4 14 2 10 9 16
9 21 1 4 -6 13 -9 21 -6 7 3 16 2 18 -3 3 -4 22 -7 43 -5 39 2 67 -11 57 -27
-3 -5 -10 -6 -16 -3 -9 6 -35 10 -113 17 -17 2 -35 6 -41 10 -6 3 -23 4 -37 2
-14 -3 -28 -1 -32 4 -3 6 -12 8 -20 4 -8 -3 -15 0 -15 7 0 6 -4 8 -10 5 -5 -3
-10 -1 -10 4 0 13 17 15 24 3z m1971 -5941 c3 -5 1 -12 -5 -16 -5 -3 -10 1
-10 9 0 18 6 21 15 7z m-235 -128 c0 -3 -6 -3 -14 0 -8 3 -22 -3 -31 -13 -17
-18 -38 -21 -52 -5 -4 4 -2 5 5 1 6 -4 12 -2 12 4 0 7 6 10 12 8 7 -3 19 1 26
8 11 12 42 9 42 -3z m-156 -57 c-7 -17 -32 -28 -45 -20 -5 3 -9 1 -9 -5 0 -18
-40 -34 -55 -21 -9 8 -15 8 -18 0 -3 -6 -4 -5 -3 2 2 7 8 13 14 13 5 0 13 3
17 7 4 4 14 4 23 1 11 -5 13 -3 7 7 -5 8 -4 11 3 6 6 -3 13 -2 17 3 3 6 13 7
22 4 11 -4 14 -3 9 5 -4 7 -1 12 8 12 9 0 13 -6 10 -14z m-1081 -312 c-4 -11
-10 -10 -29 3 -29 19 -31 27 -4 20 11 -3 20 0 20 6 0 7 4 6 9 -2 5 -8 7 -20 4
-27z m-486 -31 c-4 -3 -1 -13 6 -21 10 -13 9 -14 -11 -3 -22 12 -22 31 0 31 6
0 8 -3 5 -7z"/>
<path d="M2696 6911 c-3 -3 1 -14 8 -23 12 -16 13 -16 26 2 8 10 18 16 24 13
6 -3 7 -2 3 3 -9 10 -56 14 -61 5z m34 -7 c0 -8 -19 -13 -24 -6 -3 5 1 9 9 9
8 0 15 -2 15 -3z"/>
<path d="M2895 6910 c-4 -6 -12 -7 -18 -4 -8 4 -7 2 1 -7 11 -12 14 -12 21 0
7 11 9 11 14 0 3 -9 6 -10 6 -2 1 16 -16 26 -24 13z"/>
<path d="M2933 6902 c-7 -16 -1 -22 27 -27 12 -2 19 -1 16 3 -4 4 -13 7 -18 7
-6 0 -13 5 -15 12 -5 14 20 11 40 -5 9 -7 18 -9 21 -4 3 5 17 7 32 4 20 -4 25
-1 22 9 -6 19 -118 20 -125 1z m77 4 c0 -3 -4 -8 -10 -11 -5 -3 -10 -1 -10 4
0 6 5 11 10 11 6 0 10 -2 10 -4z"/>
<path d="M2750 6879 c0 -5 4 -8 9 -4 5 3 12 1 16 -5 3 -5 11 -10 18 -10 6 0 2
7 -9 15 -23 17 -34 19 -34 4z"/>
<path d="M3010 6871 c0 -7 -5 -9 -12 -5 -7 5 -8 3 -3 -5 5 -9 10 -10 18 -2 6
6 8 14 4 18 -4 3 -7 1 -7 -6z"/>
<path d="M3310 6861 c0 -6 4 -12 8 -15 5 -3 9 1 9 9 0 8 -4 15 -9 15 -4 0 -8
-4 -8 -9z"/>
<path d="M3425 6860 c3 -5 11 -10 16 -10 6 0 7 5 4 10 -3 6 -11 10 -16 10 -6
0 -7 -4 -4 -10z"/>
<path d="M3715 6859 c-4 -6 -3 -15 3 -21 6 -6 11 -4 15 6 7 18 -9 31 -18 15z"/>
<path d="M3762 6852 c-19 -6 -34 -39 -22 -47 6 -4 10 -3 9 2 -3 20 2 34 11 28
6 -4 7 -11 4 -17 -4 -7 -2 -8 4 -4 6 4 8 14 5 22 -5 14 -3 14 18 2 13 -7 29
-20 36 -28 11 -12 11 -10 2 12 -8 18 -17 24 -27 21 -9 -4 -13 -2 -9 4 6 10 -9
13 -31 5z"/>
<path d="M3516 6842 c-3 -5 1 -9 9 -9 8 0 12 4 9 9 -3 4 -7 8 -9 8 -2 0 -6 -4
-9 -8z"/>
<path d="M3570 6840 c0 -5 5 -10 11 -10 5 0 7 5 4 10 -3 6 -8 10 -11 10 -2 0
-4 -4 -4 -10z"/>
<path d="M3635 6821 c-3 -5 -2 -12 3 -15 5 -3 9 1 9 9 0 17 -3 19 -12 6z"/>
<path d="M3695 6820 c3 -5 8 -10 11 -10 2 0 4 5 4 10 0 6 -5 10 -11 10 -5 0
-7 -4 -4 -10z"/>
<path d="M4110 6790 c0 -16 38 -32 46 -18 4 6 3 8 -3 5 -6 -4 -13 0 -17 8 -6
17 -26 21 -26 5z"/>
<path d="M3926 6782 c-2 -4 4 -8 14 -8 10 0 16 4 14 8 -3 4 -9 8 -14 8 -5 0
-11 -4 -14 -8z"/>
<path d="M4168 6772 c-5 -19 -4 -20 13 -11 10 5 19 12 19 15 0 3 -4 3 -9 0 -5
-4 -11 -1 -13 6 -3 7 -7 3 -10 -10z"/>
<path d="M4284 6744 c9 -8 16 -19 16 -23 0 -4 11 -13 25 -19 22 -10 21 -7 -9
23 -20 19 -38 35 -41 35 -4 0 1 -7 9 -16z"/>
<path d="M4267 6727 c-3 -8 1 -14 8 -14 7 0 11 6 8 14 -3 7 -6 13 -8 13 -2 0
-5 -6 -8 -13z"/>
<path d="M4370 6680 c0 -5 5 -10 11 -10 5 0 7 5 4 10 -3 6 -8 10 -11 10 -2 0
-4 -4 -4 -10z"/>
<path d="M4455 6660 c3 -5 8 -10 11 -10 2 0 4 5 4 10 0 6 -5 10 -11 10 -5 0
-7 -4 -4 -10z"/>
<path d="M4565 6660 c3 -5 8 -10 11 -10 2 0 4 5 4 10 0 6 -5 10 -11 10 -5 0
-7 -4 -4 -10z"/>
<path d="M4591 6658 c-1 -20 14 -24 25 -6 4 6 3 8 -4 4 -5 -3 -13 0 -15 6 -3
8 -6 6 -6 -4z"/>
<path d="M4819 6553 c-13 -16 -12 -17 4 -4 9 7 17 15 17 17 0 8 -8 3 -21 -13z"/>
<path d="M4756 6547 c3 -10 9 -15 12 -12 3 3 0 11 -7 18 -10 9 -11 8 -5 -6z"/>
<path d="M4842 6547 c-8 -9 -8 -17 0 -27 8 -12 9 -12 4 2 -3 10 2 22 12 27 9
6 12 11 6 11 -6 0 -16 -6 -22 -13z"/>
<path d="M4921 6494 c0 -11 3 -14 6 -6 3 7 2 16 -1 19 -3 4 -6 -2 -5 -13z"/>
<path d="M4940 6502 c0 -4 9 -8 20 -9 11 -1 20 2 20 5 0 4 -9 8 -20 9 -11 1
-20 -2 -20 -5z"/>
<path d="M4948 6473 c7 -3 16 -2 19 1 4 3 -2 6 -13 5 -11 0 -14 -3 -6 -6z"/>
<path d="M4995 6451 c-3 -5 -2 -12 3 -15 5 -3 9 1 9 9 0 17 -3 19 -12 6z"/>
<path d="M5036 6427 c3 -10 9 -15 12 -12 3 3 0 11 -7 18 -10 9 -11 8 -5 -6z"/>
<path d="M5127 6389 c4 -13 8 -18 11 -10 2 7 -1 18 -6 23 -8 8 -9 4 -5 -13z"/>
<path d="M5217 6365 c3 -8 9 -12 14 -9 12 7 11 11 -5 17 -10 4 -13 1 -9 -8z"/>
<path d="M5247 6356 c-3 -7 -1 -19 5 -27 8 -11 9 -10 4 4 -4 12 -2 17 6 14 7
-2 12 -11 10 -18 -2 -8 0 -10 4 -6 4 4 14 -3 21 -15 7 -13 12 -17 13 -10 0 6
5 12 11 12 5 0 7 -4 4 -10 -3 -5 -1 -10 5 -10 7 0 10 6 7 13 -2 6 -11 11 -20
11 -9 -1 -19 6 -22 15 -7 24 -42 44 -48 27z"/>
<path d="M5195 6350 c-3 -5 -1 -10 4 -10 6 0 11 5 11 10 0 6 -2 10 -4 10 -3 0
-8 -4 -11 -10z"/>
<path d="M3650 6876 c0 -2 7 -7 16 -10 8 -3 12 -2 9 4 -6 10 -25 14 -25 6z"/>
<path d="M6830 1456 c0 -2 8 -10 18 -17 15 -13 16 -12 3 4 -13 16 -21 21 -21
13z"/>
<path d="M5974 1328 c-15 -18 -15 -20 -1 -9 13 10 20 11 31 2 11 -9 16 -9 22
0 4 7 3 9 -4 5 -6 -3 -15 1 -19 9 -8 14 -12 13 -29 -7z"/>
<path d="M5817 1213 c-4 -3 -7 -11 -7 -17 0 -6 5 -5 12 2 6 6 9 14 7 17 -3 3
-9 2 -12 -2z"/>
<path d="M5839 1203 c0 -5 -2 -16 -4 -26 -2 -11 -1 -16 3 -13 8 8 14 46 7 46
-3 0 -5 -3 -6 -7z"/>
<path d="M5643 1113 c-7 -2 -13 -10 -13 -15 0 -6 3 -8 6 -5 4 3 14 2 24 -3 12
-6 17 -5 17 5 0 7 -7 11 -15 7 -10 -3 -13 -1 -8 6 8 13 7 13 -11 5z"/>
<path d="M5690 1100 c0 -5 5 -10 10 -10 6 0 10 5 10 10 0 6 -4 10 -10 10 -5 0
-10 -4 -10 -10z"/>
<path d="M5630 1069 c0 -5 5 -7 10 -4 6 3 10 8 10 11 0 2 -4 4 -10 4 -5 0 -10
-5 -10 -11z"/>
<path d="M5544 1048 c-4 -6 -2 -14 4 -16 7 -2 10 -8 6 -13 -3 -5 0 -9 5 -9 14
0 14 17 1 25 -6 4 -8 11 -5 16 4 5 4 9 1 9 -3 0 -8 -5 -12 -12z"/>
<path d="M5509 1038 c0 -2 -2 -14 -5 -28 -3 -21 -2 -22 7 -7 6 10 15 14 22 10
7 -4 6 0 -2 10 -12 16 -20 21 -22 15z"/>
<path d="M5462 1004 c-12 -8 -22 -12 -22 -8 0 3 -6 1 -14 -6 -8 -6 -12 -18 -9
-27 5 -13 7 -13 15 1 5 9 18 21 30 27 18 10 20 9 15 -5 -3 -8 -3 -18 2 -20 4
-3 7 8 7 25 0 16 0 29 -1 29 0 0 -11 -7 -23 -16z"/>
<path d="M5330 905 c0 -8 4 -15 10 -15 5 0 7 7 4 15 -4 8 -8 15 -10 15 -2 0
-4 -7 -4 -15z"/>
<path d="M5210 879 c0 -6 -7 -9 -15 -6 -8 4 -17 2 -20 -3 -9 -14 5 -37 22 -37
14 0 14 2 -1 12 -23 17 -20 28 5 14 16 -8 24 -8 33 1 8 8 7 10 -7 4 -13 -5
-16 -2 -11 10 3 9 3 16 0 16 -3 0 -6 -5 -6 -11z"/>
<path d="M5115 810 c-4 -6 1 -7 11 -3 13 5 15 3 9 -7 -5 -9 -4 -11 4 -6 6 4 9
12 6 17 -8 12 -22 12 -30 -1z"/>
<path d="M4794 679 c-3 -6 -2 -15 4 -21 6 -6 12 -6 17 3 6 8 4 10 -5 4 -10 -6
-12 -4 -7 8 7 19 2 23 -9 6z"/>
<path d="M4555 640 c-4 -6 -10 -8 -15 -5 -5 3 -12 0 -15 -6 -8 -13 8 -32 30
-35 13 -2 14 1 4 12 -9 11 -9 17 1 29 7 8 10 15 7 15 -3 0 -9 -5 -12 -10z
m-11 -26 c3 -8 2 -12 -4 -9 -6 3 -10 10 -10 16 0 14 7 11 14 -7z"/>
<path d="M4495 620 c-4 -6 -14 -9 -23 -8 -11 2 -17 -3 -16 -13 1 -11 -7 -16
-22 -16 -13 0 -21 3 -18 8 3 5 -2 6 -12 2 -15 -6 -15 -7 1 -15 20 -12 64 -18
63 -9 -3 26 3 33 17 21 13 -11 14 -10 9 6 -7 18 -6 18 17 -1 l24 -20 -18 21
c-9 11 -14 24 -10 27 3 4 4 7 0 7 -3 0 -9 -5 -12 -10z"/>
<path d="M4606 622 c-3 -5 1 -9 9 -9 8 0 15 4 15 9 0 4 -4 8 -9 8 -6 0 -12 -4
-15 -8z"/>
<path d="M4655 619 c-3 -4 2 -6 10 -5 21 3 28 13 10 13 -9 0 -18 -4 -20 -8z"/>
<path d="M4392 565 c4 -4 0 -13 -8 -20 -15 -11 -15 -12 -1 -12 20 0 30 24 14
33 -7 4 -9 4 -5 -1z"/>
<path d="M4102 510 c-7 -11 -12 -23 -12 -27 0 -5 5 0 11 10 6 9 14 15 18 12 5
-2 14 2 21 10 9 10 9 15 1 15 -6 0 -11 -6 -11 -12 0 -10 -2 -10 -8 -1 -6 9
-11 7 -20 -7z"/>
<path d="M3952 498 c-31 -31 8 -39 46 -10 21 17 22 18 3 18 -11 0 -17 -4 -15
-8 3 -4 3 -8 0 -8 -2 0 -13 -3 -23 -7 -16 -6 -16 -5 -4 10 15 20 11 23 -7 5z"/>
<path d="M4118 483 c7 -3 16 -2 19 1 4 3 -2 6 -13 5 -11 0 -14 -3 -6 -6z"/>
<path d="M4035 461 c-3 -5 -2 -12 3 -15 5 -3 9 1 9 9 0 17 -3 19 -12 6z"/>
<path d="M4066 458 c3 -5 10 -6 15 -3 13 9 11 12 -6 12 -8 0 -12 -4 -9 -9z"/>
<path d="M3873 435 c0 -8 4 -12 9 -9 5 3 6 10 3 15 -9 13 -12 11 -12 -6z"/>
<path d="M3950 436 c7 -7 13 -7 20 0 6 6 3 10 -10 10 -13 0 -16 -4 -10 -10z"/>
<path d="M2700 421 c0 -10 19 -25 25 -20 1 2 -3 10 -11 17 -8 7 -14 8 -14 3z"/>
<path d="M2746 422 c-2 -4 -1 -14 3 -21 7 -10 13 -11 31 -1 18 10 24 9 32 -1
8 -11 9 -11 5 1 -2 8 -10 15 -18 15 -8 0 -17 5 -21 10 -4 6 -8 2 -8 -8 0 -10
-5 -15 -10 -12 -6 4 -8 11 -5 16 4 5 4 9 1 9 -3 0 -7 -4 -10 -8z"/>
<path d="M2840 420 c-13 -8 -12 -10 3 -10 12 0 16 -4 11 -12 -5 -9 -2 -9 9 1
13 10 20 11 30 2 8 -6 18 -7 22 -3 5 4 5 -1 2 -10 -3 -10 -3 -19 1 -22 4 -3 8
11 9 31 0 19 -2 31 -6 26 -7 -10 -22 -11 -38 0 -8 5 -13 3 -13 -5 0 -10 -2
-10 -8 -1 -5 8 -13 9 -22 3z"/>
<path d="M2957 417 c-11 -9 -12 -18 -6 -32 9 -19 9 -18 5 3 -3 15 1 22 11 22
9 0 11 -5 7 -12 -6 -10 -5 -10 8 -1 15 13 28 8 28 -9 0 -5 -5 -6 -12 -2 -7 5
-8 3 -3 -5 5 -9 10 -10 18 -2 7 7 7 14 -1 24 -7 8 -10 16 -7 18 10 11 -34 7
-48 -4z"/>
<path d="M3045 420 c-4 -6 -11 -7 -17 -4 -6 4 -6 0 1 -13 6 -11 8 -22 6 -25
-3 -3 2 -5 10 -5 10 0 12 4 6 10 -7 7 -7 16 0 29 10 19 5 26 -6 8z"/>
<path d="M3216 414 c-4 -9 -4 -19 -1 -22 2 -3 7 3 11 12 4 9 4 19 1 22 -2 3
-7 -3 -11 -12z"/>
<path d="M3659 428 c-6 -21 -5 -37 2 -32 5 3 7 9 4 14 -3 4 1 11 7 13 10 4 10
6 1 6 -7 1 -13 0 -14 -1z"/>
<path d="M3770 419 c0 -5 5 -7 10 -4 6 3 10 8 10 11 0 2 -4 4 -10 4 -5 0 -10
-5 -10 -11z"/>
<path d="M3820 426 c0 -2 8 -10 18 -17 15 -13 16 -12 3 4 -13 16 -21 21 -21
13z"/>
<path d="M3590 411 c0 -6 4 -12 8 -15 5 -3 9 1 9 9 0 8 -4 15 -9 15 -4 0 -8
-4 -8 -9z"/>
<path d="M3060 400 c0 -5 5 -10 11 -10 5 0 8 -4 5 -8 -3 -5 1 -9 9 -9 13 0 12
4 -2 19 -18 21 -23 22 -23 8z"/>
<path d="M2831 384 c0 -11 3 -14 6 -6 3 7 2 16 -1 19 -3 4 -6 -2 -5 -13z"/>
<path d="M2690 379 c0 -5 5 -7 10 -4 6 3 10 8 10 11 0 2 -4 4 -10 4 -5 0 -10
-5 -10 -11z"/>
<path d="M2720 386 c0 -2 7 -7 16 -10 8 -3 12 -2 9 4 -6 10 -25 14 -25 6z"/>
<path d="M2780 386 c0 -2 7 -9 15 -16 13 -11 14 -10 9 4 -5 14 -24 23 -24 12z"/>
<path d="M2870 386 c0 -2 7 -7 16 -10 8 -3 12 -2 9 4 -6 10 -25 14 -25 6z"/>
<path d="M3290 379 c0 -5 5 -7 10 -4 6 3 10 8 10 11 0 2 -4 4 -10 4 -5 0 -10
-5 -10 -11z"/>
<path d="M2053 55 c0 -8 4 -12 9 -9 5 3 6 10 3 15 -9 13 -12 11 -12 -6z"/>
</g>
</svg>
